HIERARCHY
ROOT hip
{
  OFFSET 0.0 0.0 0.0
  CHANNELS 6 Xposition Yposition Zposition Zrotation Yrotation Xrotation
  JOINT abdomen
  {
    OFFSET 0.0 20.6881 -0.73152
    CHANNELS 3 Zrotation Xrotation Yrotation
    JOINT chest
    {
      OFFSET 0.0 11.7043 -0.48768
      CHANNELS 3 Zrotation Xrotation Yrotation
      JOINT neck
      {
        OFFSET 0.0 22.1894 -2.19456
        CHANNELS 3 Zrotation Xrotation Yrotation
        JOINT head
        {
          OFFSET -0.24384 7.07133 1.2192
          CHANNELS 3 Zrotation Xrotation Yrotation
          JOINT leftEye
          {
            OFFSET 4.14528 8.04674 8.04672
            CHANNELS 3 Zrotation Xrotation Yrotation
            End Site
            {
              OFFSET 1.0 0.0 0.0
            }
          }
          JOINT rightEye
          {
            OFFSET -3.6576 8.04674 8.04672
            CHANNELS 3 Zrotation Xrotation Yrotation
            End Site
            {
              OFFSET 1.0 0.0 0.0
            }
          }
        }
      }
      JOINT rCollar
      {
        OFFSET -2.68224 19.2634 -4.8768
        CHANNELS 3 Zrotation Xrotation Yrotation
        JOINT rShldr
        {
          OFFSET -8.77824 -1.95073 1.46304
          CHANNELS 3 Zrotation Xrotation Yrotation
          JOINT rForeArm
          {
            OFFSET -28.1742 -1.7115 0.48768
            CHANNELS 3 Zrotation Xrotation Yrotation
            JOINT rHand
            {
              OFFSET -22.5879 0.773209 7.07136
              CHANNELS 3 Zrotation Xrotation Yrotation
              JOINT rThumb1
              {
                OFFSET -1.2192 -0.487915 3.41376
                CHANNELS 3 Zrotation Xrotation Yrotation
                JOINT rThumb2
                {
                  OFFSET -3.37035 -0.52449 3.41376
                  CHANNELS 3 Zrotation Xrotation Yrotation
                  End Site
                  {
                    OFFSET -1.78271 -1.18214 1.43049
                  }
                }
              }
              JOINT rIndex1
              {
                OFFSET -7.75947 0.938293 5.60832
                CHANNELS 3 Zrotation Xrotation Yrotation
                JOINT rIndex2
                {
                  OFFSET -2.54057 -0.884171 1.56538
                  CHANNELS 3 Zrotation Xrotation Yrotation
                  End Site
                  {
                    OFFSET -1.62519 -0.234802 1.16502
                  }
                }
              }
              JOINT rMid1
              {
                OFFSET -8.24714 1.18213 3.41376
                CHANNELS 3 Zrotation Xrotation Yrotation
                JOINT rMid2
                {
                  OFFSET -3.10165 -0.590103 1.0647
                  CHANNELS 3 Zrotation Xrotation Yrotation
                  End Site
                  {
                    OFFSET -2.48547 -0.328903 0.83742
                  }
                }
              }
              JOINT rRing1
              {
                OFFSET -8.82822 0.546677 1.51678
                CHANNELS 3 Zrotation Xrotation Yrotation
                JOINT rRing2
                {
                  OFFSET -2.60934 -0.819778 -0.0198488
                  CHANNELS 3 Zrotation Xrotation Yrotation
                  End Site
                  {
                    OFFSET -2.33842 -0.294052 0.168128
                  }
                }
              }
              JOINT rPinky1
              {
                OFFSET -8.27202 -0.0477905 -0.4584
                CHANNELS 3 Zrotation Xrotation Yrotation
                JOINT rPinky2
                {
                  OFFSET -1.82734 -0.647385 -0.700984
                  CHANNELS 3 Zrotation Xrotation Yrotation
                  End Site
                  {
                    OFFSET -1.69225 -0.51767 -0.607171
                  }
                }
              }
            }
          }
        }
      }
      JOINT lCollar
      {
        OFFSET 2.68224 19.2634 -4.8768
        CHANNELS 3 Zrotation Xrotation Yrotation
        JOINT lShldr
        {
          OFFSET 8.77824 -1.95073 1.46304
          CHANNELS 3 Zrotation Xrotation Yrotation
          JOINT lForeArm
          {
            OFFSET 28.1742 -1.7115 0.48768
            CHANNELS 3 Zrotation Xrotation Yrotation
            JOINT lHand
            {
              OFFSET 22.5879 0.773209 7.07136
              CHANNELS 3 Zrotation Xrotation Yrotation
              JOINT lThumb1
              {
                OFFSET 1.2192 -0.487915 3.41376
                CHANNELS 3 Zrotation Xrotation Yrotation
                JOINT lThumb2
                {
                  OFFSET 3.37035 -0.52449 3.41376
                  CHANNELS 3 Zrotation Xrotation Yrotation
                  End Site
                  {
                    OFFSET 1.78271 -1.18214 1.43049
                  }
                }
              }
              JOINT lIndex1
              {
                OFFSET 7.75947 0.938293 5.60832
                CHANNELS 3 Zrotation Xrotation Yrotation
                JOINT lIndex2
                {
                  OFFSET 2.54057 -0.884171 1.56538
                  CHANNELS 3 Zrotation Xrotation Yrotation
                  End Site
                  {
                    OFFSET 1.62519 -0.234802 1.16502
                  }
                }
              }
              JOINT lMid1
              {
                OFFSET 8.24714 1.18213 3.41376
                CHANNELS 3 Zrotation Xrotation Yrotation
                JOINT lMid2
                {
                  OFFSET 3.10165 -0.590103 1.0647
                  CHANNELS 3 Zrotation Xrotation Yrotation
                  End Site
                  {
                    OFFSET 2.48547 -0.328903 0.83742
                  }
                }
              }
              JOINT lRing1
              {
                OFFSET 8.82822 0.546677 1.51678
                CHANNELS 3 Zrotation Xrotation Yrotation
                JOINT lRing2
                {
                  OFFSET 2.60934 -0.819778 -0.0198488
                  CHANNELS 3 Zrotation Xrotation Yrotation
                  End Site
                  {
                    OFFSET 2.33842 -0.294052 0.168128
                  }
                }
              }
              JOINT lPinky1
              {
                OFFSET 8.27202 -0.0477905 -0.4584
                CHANNELS 3 Zrotation Xrotation Yrotation
                JOINT lPinky2
                {
                  OFFSET 1.82734 -0.647385 -0.700984
                  CHANNELS 3 Zrotation Xrotation Yrotation
                  End Site
                  {
                    OFFSET 1.69225 -0.51767 -0.607171
                  }
                }
              }
            }
          }
        }
      }
    }
  }
  JOINT rButtock
  {
    OFFSET -8.77824 4.35084 1.2192
    CHANNELS 3 Zrotation Xrotation Yrotation
    JOINT rThigh
    {
      OFFSET 0.0 -1.70687 -2.19456
      CHANNELS 3 Zrotation Xrotation Yrotation
      JOINT rShin
      {
        OFFSET 0.0 -36.8199 0.73152
        CHANNELS 3 Zrotation Xrotation Yrotation
        JOINT rFoot
        {
          OFFSET 0.73152 -45.1104 -5.12064
          CHANNELS 3 Zrotation Xrotation Yrotation
          End Site
          {
            OFFSET -1.1221 -3.69964 12.103
          }
        }
      }
    }
  }
  JOINT lButtock
  {
    OFFSET 8.77824 4.35084 1.2192
    CHANNELS 3 Zrotation Xrotation Yrotation
    JOINT lThigh
    {
      OFFSET 0.0 -1.70687 -2.19456
      CHANNELS 3 Zrotation Xrotation Yrotation
      JOINT lShin
      {
        OFFSET 0.0 -36.8199 0.73152
        CHANNELS 3 Zrotation Xrotation Yrotation
        JOINT lFoot
        {
          OFFSET -0.73152 -45.1104 -5.12064
          CHANNELS 3 Zrotation Xrotation Yrotation
          End Site
          {
            OFFSET 1.1221 -3.69964 12.103
          }
        }
      }
    }
  }
}
MOTION
Frames: 7
Frame Time: 0.00833333
-155.678 89.1078 -25.8676 176.14 83.3793 197.947 3.33741 28.9664 -3.56472 -3.07861 -4.08415 -0.361203 3.15681 20.6263 -1.77544 3.09389 -63.5201 -0.454309 -0.0 0.0 0.0 -0.0 0.0 0.0 1.2716e-14 -1.44805e-12 -1.01629e-13 80.235 28.9064 3.76501 -13.6032 -6.63867 24.7591 -0.016862 3.70464 0.521387 -8.49027e-10 -2.47972e-10 2.86453e-09 -1.45266e-09 -4.27781e-10 4.9568e-09 -8.49013e-10 -2.47969e-10 2.86452e-09 7.73091 5.47488 0.417314 -8.49025e-10 -2.47969e-10 2.86453e-09 2.90554 0.965183 0.102902 -8.49006e-10 -2.47972e-10 2.86452e-09 10.2786 0.731801 0.0259123 -8.4903e-10 -2.47972e-10 2.86455e-09 2.22167 -0.733487 -0.20892 1.27293e-14 -1.44805e-12 -1.01927e-13 -80.7509 23.5966 2.87314 13.9756 -6.93474 -25.505 0.605245 -21.5432 3.18058 -1.10516e-09 -6.50986e-10 -3.55677e-09 -1.86206e-09 -1.14213e-09 -6.16479e-09 -1.10517e-09 -6.50988e-10 -3.55676e-09 -7.73091 5.47488 -0.417314 -1.10516e-09 -6.50987e-10 -3.55677e-09 -2.90554 0.965183 -0.102902 -1.10517e-09 -6.50987e-10 -3.55678e-09 -10.2786 0.731801 -0.0259123 -1.10516e-09 -6.50987e-10 -3.55679e-09 -2.22167 -0.733487 0.20892 -2.03217e-16 0.0 -3.88251e-19 1.24231 -39.4207 -0.457307 -0.252383 31.4596 0.279001 0.583861 12.5535 -7.64045 2.03217e-16 0.0 3.88251e-19 7.00152 -45.4772 10.8669 0.605829 51.0713 -1.08087 1.58774 20.7321 -3.37806
-155.087 89.0375 -25.8166 177.092 83.3412 198.681 3.31951 29.0451 -3.48046 -3.0847 -4.05577 -0.332791 3.1635 20.6116 -1.80486 3.12479 -63.4282 -0.509809 -0.0 0.0 0.0 -0.0 0.0 0.0 3.87888e-14 -1.3766e-12 -1.18969e-13 80.2626 28.8841 3.75519 -13.5922 -6.63194 24.7383 -0.0169311 3.71219 0.522453 -9.11439e-10 -2.63211e-10 2.77077e-09 -1.561e-09 -4.54421e-10 4.79546e-09 -9.11425e-10 -2.63209e-10 2.77076e-09 7.73091 5.47488 0.417314 -9.11437e-10 -2.6321e-10 2.77077e-09 2.90554 0.965183 0.102902 -9.11419e-10 -2.63212e-10 2.77076e-09 10.2786 0.731801 0.0259123 -9.11442e-10 -2.63212e-10 2.77079e-09 2.22167 -0.733487 -0.20892 3.88605e-14 -1.3766e-12 -1.19227e-13 -80.7852 23.4793 2.97826 13.9275 -6.89611 -25.4084 0.599747 -21.4509 3.16557 -1.24277e-09 -7.36209e-10 -3.50844e-09 -2.10012e-09 -1.29104e-09 -6.08393e-09 -1.24277e-09 -7.3621e-10 -3.50843e-09 -7.73091 5.47488 -0.417314 -1.24277e-09 -7.3621e-10 -3.50844e-09 -2.90554 0.965183 -0.102902 -1.24278e-09 -7.3621e-10 -3.50845e-09 -10.2786 0.731801 -0.0259123 -1.24277e-09 -7.3621e-10 -3.50846e-09 -2.22167 -0.733487 0.20892 -2.03217e-16 0.0 -3.88251e-19 1.55154 -38.9169 -0.44211 -0.256548 31.6741 0.277102 0.528489 12.0706 -7.71671 2.03217e-16 0.0 3.88251e-19 6.95125 -46.3745 10.7654 0.593476 50.6149 -1.03693 1.50956 20.619 -3.14633
-154.497 88.967 -25.7676 178.084 83.3072 199.464 3.29158 29.1128 -3.39438 -3.09348 -4.02585 -0.304669 3.16918 20.5867 -1.8337 3.14919 -63.3105 -0.571045 -0.0 0.0 0.0 -0.0 0.0 0.0 7.45158e-14 -9.50229e-13 -1.23768e-13 80.2951 28.8603 3.7434 -13.5842 -6.62848 24.724 -0.0169977 3.71947 0.52348 -9.3903e-10 -2.67651e-10 2.28724e-09 -1.61111e-09 -4.62663e-10 3.96005e-09 -9.39018e-10 -2.67651e-10 2.28722e-09 7.73091 5.47488 0.417314 -9.39029e-10 -2.67653e-10 2.28724e-09 2.90554 0.965183 0.102902 -9.39015e-10 -2.67652e-10 2.28723e-09 10.2786 0.731801 0.0259123 -9.39035e-10 -2.67655e-10 2.28725e-09 2.22167 -0.733487 -0.20892 7.46429e-14 -9.50235e-13 -1.23961e-13 -80.8185 23.3506 3.08178 13.8791 -6.85734 -25.3112 0.594508 -21.3627 3.15123 -1.3296e-09 -7.07043e-10 -2.95521e-09 -2.25745e-09 -1.2406e-09 -5.12952e-09 -1.3296e-09 -7.07041e-10 -2.95519e-09 -7.73091 5.47488 -0.417314 -1.3296e-09 -7.07042e-10 -2.95521e-09 -2.90554 0.965183 -0.102902 -1.32961e-09 -7.07042e-10 -2.95521e-09 -10.2786 0.731801 -0.0259123 -1.32959e-09 -7.07043e-10 -2.95522e-09 -2.22167 -0.733487 0.20892 -2.03217e-16 0.0 -3.88251e-19 1.87254 -38.4054 -0.430905 -0.260736 31.8745 0.274122 0.471071 11.5529 -7.82567 2.03217e-16 0.0 3.88251e-19 6.8674 -47.2435 10.6383 0.579006 50.0689 -0.989077 1.4389 20.5488 -2.92943
-153.902 88.8973 -25.7196 179.156 83.279 200.327 3.26532 29.1766 -3.30836 -3.10585 -3.9935 -0.276386 3.17466 20.5584 -1.85924 3.16431 -63.1855 -0.631399 -0.0 0.0 0.0 -0.0 0.0 0.0 1.01982e-13 -4.23691e-13 -1.15734e-13 80.327 28.8437 3.73363 -13.579 -6.62698 24.7152 -0.0170388 3.72396 0.524114 -9.39268e-10 -2.76179e-10 1.78095e-09 -1.6141e-09 -4.77908e-10 3.08504e-09 -9.39258e-10 -2.76179e-10 1.78093e-09 7.73091 5.47488 0.417314 -9.39267e-10 -2.76182e-10 1.78095e-09 2.90554 0.965183 0.102902 -9.39257e-10 -2.76179e-10 1.78094e-09 10.2786 0.731801 0.0259123 -9.39274e-10 -2.76184e-10 1.78096e-09 2.22167 -0.733487 -0.20892 1.02141e-13 -4.237e-13 -1.15864e-13 -80.8532 23.217 3.18429 13.8323 -6.81999 -25.2173 0.589941 -21.2853 3.13868 -1.35771e-09 -6.00764e-10 -2.32015e-09 -2.31477e-09 -1.05576e-09 -4.03256e-09 -1.35771e-09 -6.00761e-10 -2.32012e-09 -7.73091 5.47488 -0.417314 -1.35771e-09 -6.00764e-10 -2.32014e-09 -2.90554 0.965183 -0.102902 -1.35772e-09 -6.00764e-10 -2.32015e-09 -10.2786 0.731801 -0.0259123 -1.3577e-09 -6.00764e-10 -2.32015e-09 -2.22167 -0.733487 0.20892 -2.03217e-16 0.0 -3.88251e-19 2.20704 -37.8701 -0.4117 -0.26455 32.0346 0.269531 0.412235 11.0274 -7.94788 2.03217e-16 0.0 3.88251e-19 6.7686 -48.0701 10.5061 0.56212 49.4373 -0.937412 1.38337 20.5267 -2.75372
-153.302 88.8327 -25.6717 180.341 83.2592 201.299 3.25241 29.2436 -3.22425 -3.12268 -3.95781 -0.247488 3.18076 20.5337 -1.87881 3.16707 -63.0716 -0.684504 -0.0 0.0 0.0 -0.0 0.0 0.0 1.03272e-13 -5.17287e-14 -9.45718e-14 80.3528 28.8429 3.72985 -13.5765 -6.62611 24.7109 -0.0170312 3.72316 0.524001 -9.19618e-10 -3.03679e-10 1.61892e-09 -1.58111e-09 -5.25561e-10 2.80488e-09 -9.1961e-10 -3.03681e-10 1.6189e-09 7.73091 5.47488 0.417314 -9.19617e-10 -3.03684e-10 1.61892e-09 2.90554 0.965183 0.102902 -9.19609e-10 -3.0368e-10 1.6189e-09 10.2786 0.731801 0.0259123 -9.19624e-10 -3.03685e-10 1.61892e-09 2.22167 -0.733487 -0.20892 1.03421e-13 -5.17376e-14 -9.46712e-14 -80.8918 23.0846 3.28639 13.7892 -6.78562 -25.131 0.586446 -21.2256 3.12902 -1.31916e-09 -4.54653e-10 -2.02633e-09 -2.25281e-09 -8.01468e-10 -3.52407e-09 -1.31917e-09 -4.5465e-10 -2.02631e-09 -7.73091 5.47488 -0.417314 -1.31916e-09 -4.54653e-10 -2.02633e-09 -2.90554 0.965183 -0.102902 -1.31917e-09 -4.54653e-10 -2.02633e-09 -10.2786 0.731801 -0.0259123 -1.31916e-09 -4.54653e-10 -2.02634e-09 -2.22167 -0.733487 0.20892 -2.03217e-16 0.0 -3.88251e-19 2.55618 -37.2947 -0.372881 -0.267602 32.128 0.262802 0.353515 10.5209 -8.06394 2.03217e-16 0.0 3.88251e-19 6.67554 -48.8402 10.3905 0.542543 48.7242 -0.882061 1.35067 20.558 -2.64554
-152.7 88.7725 -25.6229 181.617 83.2428 202.366 3.25615 29.3118 -3.14283 -3.14417 -3.91823 -0.21798 3.18744 20.5129 -1.89049 3.15375 -62.9718 -0.728087 -0.0 0.0 0.0 -0.0 0.0 0.0 5.96912e-14 1.15221e-13 -4.70157e-14 80.3706 28.8626 3.73416 -13.576 -6.62465 24.7093 -0.0169935 3.71889 0.523399 -8.0147e-10 -3.56471e-10 1.92886e-09 -1.37571e-09 -6.16317e-10 3.33992e-09 -8.01461e-10 -3.56472e-10 1.92884e-09 7.73091 5.47488 0.417314 -8.01468e-10 -3.56476e-10 1.92886e-09 2.90554 0.965183 0.102902 -8.0146e-10 -3.56471e-10 1.92885e-09 10.2786 0.731801 0.0259123 -8.01475e-10 -3.56476e-10 1.92886e-09 2.22167 -0.733487 -0.20892 5.97505e-14 1.15217e-13 -4.71325e-14 -80.9359 22.9497 3.39037 13.7513 -6.75548 -25.0551 0.584728 -21.1961 3.12424 -1.09585e-09 -2.23217e-10 -2.14242e-09 -1.86687e-09 -3.97963e-10 -3.72069e-09 -1.09586e-09 -2.23213e-10 -2.14239e-09 -7.73091 5.47488 -0.417314 -1.09586e-09 -2.23216e-10 -2.14241e-09 -2.90554 0.965183 -0.102902 -1.09586e-09 -2.23216e-10 -2.14241e-09 -10.2786 0.731801 -0.0259123 -1.09585e-09 -2.23216e-10 -2.14242e-09 -2.22167 -0.733487 0.20892 -2.03217e-16 0.0 -3.88251e-19 2.92782 -36.6772 -0.308138 -0.269864 32.1475 0.253857 0.294086 10.024 -8.17565 2.03217e-16 0.0 3.88251e-19 6.59134 -49.5551 10.2862 0.521009 47.9241 -0.823524 1.34514 20.6351 -2.62129
-152.094 88.7186 -25.5746 183.024 83.2355 203.558 3.27028 29.3788 -3.06304 -3.16987 -3.87535 -0.188063 3.19436 20.4928 -1.89612 3.12678 -62.877 -0.765887 -0.0 0.0 0.0 -0.0 0.0 0.0 -1.45673e-14 2.0719e-13 2.23819e-14 80.3835 28.8974 3.74409 -13.578 -6.6236 24.7117 -0.01693 3.71166 0.522379 -6.07707e-10 -4.25831e-10 2.50509e-09 -1.03843e-09 -7.3532e-10 4.33471e-09 -6.07699e-10 -4.25832e-10 2.50507e-09 7.73091 5.47488 0.417314 -6.07705e-10 -4.25835e-10 2.50509e-09 2.90554 0.965183 0.102902 -6.07696e-10 -4.25832e-10 2.50508e-09 10.2786 0.731801 0.0259123 -6.07713e-10 -4.25835e-10 2.50509e-09 2.22167 -0.733487 -0.20892 -1.46551e-14 2.07195e-13 2.22173e-14 -80.9838 22.8109 3.49519 13.7172 -6.72849 -24.9869 0.584346 -21.1895 3.12317 -7.30681e-10 9.49504e-11 -2.45748e-09 -1.23375e-09 1.57033e-10 -4.25866e-09 -7.30685e-10 9.49532e-11 -2.45746e-09 -7.73091 5.47488 -0.417314 -7.30681e-10 9.49513e-11 -2.45747e-09 -2.90554 0.965183 -0.102902 -7.30688e-10 9.49512e-11 -2.45747e-09 -10.2786 0.731801 -0.0259123 -7.30681e-10 9.49506e-11 -2.45748e-09 -2.22167 -0.733487 0.20892 -2.03217e-16 0.0 -3.88251e-19 3.31741 -36.0254 -0.225586 -0.271553 32.1073 0.242974 0.233446 9.52796 -8.29103 2.03217e-16 0.0 3.88251e-19 6.50698 -50.2206 10.1856 0.49841 47.0369 -0.762385 1.36186 20.7582 -2.66377
